<svg width="84" height="56" viewBox="0 0 84 56" fill="none" xmlns="http://www.w3.org/2000/svg">
<path d="M82.3594 5.87896H68.9062V2.40576C68.9062 1.50014 68.1712 0.765137 67.2656 0.765137H31.8281C30.9225 0.765137 30.1875 1.50014 30.1875 2.40576C30.1875 3.31139 30.9225 4.04639 31.8281 4.04639H65.625V16.6251C65.625 27.6747 59.7253 37.9433 50.1998 43.5313H18.7064C9.18094 37.9433 3.28125 27.6747 3.28125 16.6251V4.04639H14.2734C15.1791 4.04639 15.9141 3.31139 15.9141 2.40576C15.9141 1.50014 15.1791 0.765137 14.2734 0.765137H1.64062C0.735 0.765137 0 1.50014 0 2.40576V16.6251C0 22.8266 1.66688 28.9068 4.82016 34.2093C6.94641 37.7858 9.70594 40.9424 12.938 43.5313H1.64062C0.735 43.5313 0 44.2663 0 45.1719C0 51.1422 4.85789 56.0001 10.8281 56.0001H62.0156C67.9859 56.0001 72.8438 51.1422 72.8438 45.1719C72.8438 44.2663 72.1087 43.5313 71.2031 43.5313H55.9683C58.9427 41.1491 61.5152 38.2846 63.5644 35.0542H68.1959C76.9109 35.0542 84 27.9651 84 19.2501V7.51959C84 6.61396 83.265 5.87896 82.3594 5.87896ZM62.0156 52.7188H10.8281C7.23023 52.7188 4.21148 50.1873 3.46172 46.8126H18.2667H50.6395H69.382C68.6323 50.1873 65.6135 52.7188 62.0156 52.7188ZM68.9062 15.7227H74.1562V19.2501C74.1562 22.5362 71.482 25.2104 68.1959 25.2104H67.8234C68.5387 22.4197 68.9062 19.5355 68.9062 16.6251V15.7227ZM80.7188 19.2501C80.7188 26.1554 75.1012 31.7729 68.1959 31.7729H65.4035C65.9269 30.7033 66.3961 29.6073 66.8046 28.4917H68.1959C73.2916 28.4917 77.4375 24.3458 77.4375 19.2501V14.0821C77.4375 13.1765 76.7025 12.4415 75.7969 12.4415H68.9062V9.16021H80.7188V19.2501Z" fill="#FF699F"/>
</svg>
