<svg width="60" height="57" viewBox="0 0 60 57" fill="none" xmlns="http://www.w3.org/2000/svg">
<path d="M45.35 56.17C44.66 56.17 43.96 56 43.32 55.67L30.4 48.88C30.15 48.75 29.84 48.75 29.59 48.88L16.67 55.67C15.19 56.45 13.44 56.32 12.09 55.34C10.74 54.36 10.08 52.73 10.36 51.08L12.83 36.7C12.88 36.42 12.78 36.13 12.58 35.93L2.12998 25.75C0.939977 24.59 0.509977 22.88 1.02998 21.29C1.54998 19.7 2.88998 18.57 4.53998 18.33L18.98 16.23C19.26 16.19 19.51 16.01 19.64 15.75L26.1 2.66999C26.84 1.16999 28.33 0.23999 30 0.23999C31.67 0.23999 33.16 1.16999 33.9 2.66999L40.36 15.75C40.49 16.01 40.73 16.19 41.01 16.23L55.45 18.33C57.1 18.57 58.45 19.71 58.96 21.29C59.48 22.88 59.05 24.59 57.86 25.75L47.42 35.93C47.22 36.13 47.12 36.42 47.17 36.7L49.64 51.08C49.92 52.72 49.26 54.35 47.91 55.34C47.14 55.89 46.25 56.17 45.35 56.17ZM30 45.3C30.7 45.3 31.39 45.47 32.03 45.8L44.95 52.59C45.38 52.82 45.74 52.62 45.87 52.52C46 52.42 46.3 52.15 46.22 51.67L43.75 37.29C43.51 35.88 43.98 34.44 45 33.44L55.45 23.26C55.8 22.92 55.72 22.52 55.67 22.37C55.62 22.22 55.45 21.85 54.97 21.78L40.53 19.68C39.11 19.47 37.89 18.58 37.25 17.3L30.78 4.20999C30.56 3.76999 30.16 3.71999 30 3.71999C29.84 3.71999 29.44 3.76999 29.22 4.19999L22.76 17.28C22.13 18.56 20.9 19.45 19.48 19.66L5.03998 21.76C4.55998 21.83 4.38998 22.2 4.33998 22.35C4.28998 22.5 4.20998 22.9 4.55998 23.24L15.01 33.42C16.04 34.42 16.5 35.86 16.26 37.27L13.79 51.65C13.71 52.13 14.01 52.41 14.14 52.5C14.27 52.6 14.62 52.79 15.06 52.57L27.98 45.78C28.61 45.46 29.3 45.3 30 45.3Z" fill="#FF699F"/>
</svg>
